# xmcd CD database file
#
# Track frame offsets:
#	150
#	14510
#	27645
#	39275
#	50858
#	64628
#	76116
#	92339
#	108182
#	121535
#	136543
#	153178
#	167361
#	180291
#	192312
#	206953
#	219796
#	232089
#	243612
#	259242
#	273528
#	290299
#	302247
#	315207
#	329205
#
# Disc length: 4592 seconds
#
# Revision: 3
# Processed by: cddbd v1.5.2PL0 Copyright (c) Steve Scherf et al.
# Submitted via: CDex 1.50beta10
#
DISCID=5211ee19
DTITLE=Sam Taylor - Sam Taylor - Saxphone 23456 波麗唱片
DYEAR=2012
DGENRE=Jazz
TTITLE0=Saxphone 2 波麗唱片 - 冬戀
TTITLE1=Saxphone 5 波麗唱片 - 星夜的離別
TTITLE2=Saxphone 3 波麗唱片 - 淚戀
TTITLE3=Saxphone 3 波麗唱片 - 伊人何處
TTITLE4=Saxphone 3 波麗唱片 - 愛的禮物
TTITLE5=Saxphone 6 波麗唱片 - 無根草的歸宿 台北今夜冷清清
TTITLE6=Saxphone 5 波麗唱片 - 說聲對不起
TTITLE7=Saxphone 4 波麗唱片 - 路燈了解我心意
TTITLE8=Saxphone 6 波麗唱片 - 星星的流程
TTITLE9=Saxphone 2 波麗唱片 - 落淚的早晨
TTITLE10=Saxphone 2 波麗唱片 - 惜春
TTITLE11=Saxphone 2 波麗唱片 - 港口夜景
TTITLE12=Saxphone 3 波麗唱片 - 小雪
TTITLE13=Saxphone 3 波麗唱片 - 思案橋的布震斯
TTITLE14=Saxphone 3 波麗唱片 - 我在祈禱
TTITLE15=Saxphone 3 波麗唱片 - 從北方旅店來的人
TTITLE16=Saxphone 3 波麗唱片 - 繁榮街的布震斯
TTITLE17=Saxphone 3 波麗唱片 - 夢幻的布震斯
TTITLE18=Saxphone 4 波麗唱片 - 鉤線
TTITLE19=Saxphone 4 波麗唱片 - 墮落之旅
TTITLE20=Saxphone 4 波麗唱片 - 慕的燈光
TTITLE21=Saxphone 5 波麗唱片 - 黃昏的港口
TTITLE22=Saxphone 6 波麗唱片 - 孤獨的女人
TTITLE23=Saxphone 6 波麗唱片 - 港口的旅店
TTITLE24=Saxphone 5 波麗唱片 - 哀怨的本線 日本海
EXTD=YEAR: 2012
EXTT0=
EXTT1=
EXTT2=
EXTT3=
EXTT4=
EXTT5=
EXTT6=
EXTT7=
EXTT8=
EXTT9=
EXTT10=
EXTT11=
EXTT12=
EXTT13=
EXTT14=
EXTT15=
EXTT16=
EXTT17=
EXTT18=
EXTT19=
EXTT20=
EXTT21=
EXTT22=
EXTT23=
EXTT24=
PLAYORDER=
